# xmcd
#
# Track frame offsets:
#	150
#	20646
#	34867
#	51866
#	74673
#	93408
#	109598
#	128982
#
# Disc length: 1969 seconds
#
# Revision: 1
# Processed by: cddbd v1.5.2PL0 Copyright (c) Steve Scherf et al.
# Submitted via: audiograbber 1.83.01
#
DISCID=6f07af08
DTITLE=Bonefish - Time To Market
DYEAR=2014
DGENRE=
TTITLE0=Time To Market
TTITLE1=Still Down At Seven
TTITLE2=Bullet
TTITLE3=We All Gonna Go That Road
TTITLE4=White Bird - Version
TTITLE5=As Her Soul - Version
TTITLE6=Revolve -Version
TTITLE7=My Sweet Lord -Version
EXTD=
EXTT0=
EXTT1=
EXTT2=
EXTT3=
EXTT4=
EXTT5=
EXTT6=
EXTT7=
PLAYORDER=
